<svg width="27" height="27" viewBox="0 0 27 27" fill="none" xmlns="http://www.w3.org/2000/svg">
<g clip-path="url(#clip0_45_55)">
<path d="M4.49998 0H7.87498C10.3602 0 12.375 2.01472 12.375 4.49998V7.87498C12.375 10.3602 10.3602 12.375 7.87498 12.375H4.49998C2.01472 12.375 0 10.3603 0 7.87498V4.49998C0 2.01472 2.01472 0 4.49998 0Z" fill="white"/>
<path d="M19.125 0H22.5C24.9852 0 27 2.01472 27 4.49998V7.87498C27 10.3602 24.9852 12.375 22.5 12.375H19.125C16.6397 12.375 14.625 10.3602 14.625 7.87498V4.49998C14.6249 2.01472 16.6397 0 19.125 0Z" fill="white"/>
<path d="M4.49998 14.625H7.87498C10.3602 14.625 12.375 16.6397 12.375 19.125V22.5C12.375 24.9852 10.3602 26.9999 7.87498 26.9999H4.49998C2.01472 27 0 24.9853 0 22.5V19.125C0 16.6397 2.01472 14.625 4.49998 14.625Z" fill="white"/>
<path d="M19.125 14.625H22.5C24.9852 14.625 27 16.6397 27 19.125V22.5C27 24.9853 24.9852 27 22.5 27H19.125C16.6397 27 14.625 24.9853 14.625 22.5V19.125C14.6249 16.6397 16.6397 14.625 19.125 14.625Z" fill="white"/>
</g>
<defs>
<clipPath id="clip0_45_55">
<rect width="27" height="27" fill="white"/>
</clipPath>
</defs>
</svg>
