<svg width="27" height="27" viewBox="0 0 27 27" fill="none" xmlns="http://www.w3.org/2000/svg">
<g clip-path="url(#clip0_91_380)">
<path d="M4.57649 20.25H22.1895C22.7316 20.25 23.2656 20.1195 23.7466 19.8694C24.2275 19.6193 24.6411 19.2571 24.9525 18.8133C25.2638 18.3696 25.4636 17.8574 25.5351 17.3201C25.6066 16.7827 25.5476 16.2361 25.3631 15.7264L22.1546 6.85575C21.6067 4.88442 20.4281 3.14684 18.7991 1.90875C17.1701 0.670669 15.1804 0.000238588 13.1344 1.14447e-09V1.14448e-09C11.0044 -3.32913e-05 8.93817 0.726286 7.27673 2.05904C5.61529 3.39179 4.45802 5.25128 3.99599 7.3305L1.35224 15.8805C1.19659 16.3853 1.16159 16.9196 1.25008 17.4403C1.33856 17.9611 1.54806 18.4539 1.8617 18.8789C2.17534 19.304 2.58438 19.6495 3.0559 19.8876C3.52742 20.1257 4.04825 20.2499 4.57649 20.25Z" fill="white"/>
<path d="M7.98755 22.5C8.24575 23.7716 8.93562 24.9148 9.94026 25.7359C10.9449 26.5571 12.2025 27.0056 13.5 27.0056C14.7976 27.0056 16.0552 26.5571 17.0598 25.7359C18.0645 24.9148 18.7543 23.7716 19.0125 22.5H7.98755Z" fill="white"/>
</g>
<defs>
<clipPath id="clip0_91_380">
<rect width="27" height="27" fill="white"/>
</clipPath>
</defs>
</svg>
