<svg width="40" height="40" viewBox="0 0 40 40" fill="none" xmlns="http://www.w3.org/2000/svg">
<path d="M33.3333 33.3333H6.66659C5.81042 33.359 4.97898 33.0443 4.35425 32.4583C3.72952 31.8723 3.3624 31.0627 3.33325 30.2067V9.79166C3.3624 8.93576 3.72958 8.12629 4.35435 7.54056C4.97913 6.95483 5.81058 6.64059 6.66659 6.66666H33.3333C34.1893 6.64059 35.0207 6.95483 35.6455 7.54056C36.2703 8.12629 36.6374 8.93576 36.6666 9.79166V30.2083C36.637 31.0641 36.2697 31.8733 35.645 32.4589C35.0203 33.0446 34.1891 33.359 33.3333 33.3333ZM6.66659 10V29.9817L33.3333 30V10.0183L6.66659 10ZM22.3833 26.6667H9.99992C10.1225 25.2868 10.7755 24.0082 11.8216 23.1C12.9863 21.9445 14.5513 21.282 16.1916 21.25C17.8316 21.2833 19.3966 21.945 20.5616 23.1C21.6074 24.0084 22.2604 25.2869 22.3833 26.6667ZM29.9999 25H24.9999V21.6667H29.9999V25ZM16.1916 20C15.7497 20.0154 15.3094 19.9396 14.898 19.7776C14.4867 19.6155 14.113 19.3705 13.8004 19.0578C13.4878 18.7452 13.2428 18.3716 13.0807 17.9602C12.9186 17.5489 12.8429 17.1085 12.8583 16.6667C12.8431 16.2248 12.919 15.7846 13.0812 15.3734C13.2434 14.9621 13.4884 14.5886 13.8009 14.276C14.1135 13.9634 14.4871 13.7184 14.8983 13.5563C15.3096 13.3941 15.7498 13.3182 16.1916 13.3333C16.6334 13.3182 17.0736 13.3941 17.4849 13.5563C17.8961 13.7184 18.2696 13.9634 18.5822 14.276C18.8948 14.5886 19.1398 14.9621 19.302 15.3734C19.4641 15.7846 19.54 16.2248 19.5249 16.6667C19.5403 17.1085 19.4646 17.5489 19.3025 17.9602C19.1404 18.3716 18.8954 18.7452 18.5828 19.0578C18.2701 19.3705 17.8965 19.6155 17.4851 19.7776C17.0738 19.9396 16.6335 20.0154 16.1916 20ZM29.9999 18.3333H23.3333V15H29.9999V18.3333Z" fill="#101010" fill-opacity="0.5"/>
</svg>
