<svg width="27" height="27" viewBox="0 0 27 27" fill="none" xmlns="http://www.w3.org/2000/svg">
<g clip-path="url(#clip0_45_70)">
<path d="M10.125 4.5C10.125 2.01487 13.9028 0 18.5625 0C23.2222 0 27 2.01487 27 4.5C27 6.98513 23.2222 9 18.5625 9C13.9028 9 10.125 6.98513 10.125 4.5ZM18.5625 11.25C17.4071 11.25 16.3114 11.1206 15.3101 10.8956C13.7812 9.74925 11.2759 9 8.4375 9C3.77775 9 0 11.0149 0 13.5C0 15.9851 3.77775 18 8.4375 18C13.0972 18 16.875 15.9851 16.875 13.5C16.875 13.4674 16.8671 13.4359 16.866 13.4032H16.875V15.75C16.875 18.2351 13.0972 20.25 8.4375 20.25C3.77775 20.25 0 18.2351 0 15.75V18C0 20.4851 3.77775 22.5 8.4375 22.5C13.0972 22.5 16.875 20.4851 16.875 18V20.25C16.875 22.7351 13.0972 24.75 8.4375 24.75C3.77775 24.75 0 22.7351 0 20.25V22.5C0 24.9851 3.77775 27 8.4375 27C13.0972 27 16.875 24.9851 16.875 22.5V22.41C17.4206 22.4685 17.9842 22.5 18.5625 22.5C23.2222 22.5 27 20.4851 27 18V15.75C27 18.1339 23.5215 20.0801 19.125 20.2354V17.9854C23.5215 17.8301 27 15.885 27 13.5V11.25C27 13.6339 23.5215 15.5801 19.125 15.7354V13.4854C23.5215 13.3301 27 11.385 27 9V6.75C27 9.23513 23.2222 11.25 18.5625 11.25Z" fill="white"/>
</g>
<defs>
<clipPath id="clip0_45_70">
<rect width="27" height="27" fill="white"/>
</clipPath>
</defs>
</svg>
