<svg width="27" height="27" viewBox="0 0 27 27" fill="none" xmlns="http://www.w3.org/2000/svg">
<g clip-path="url(#clip0_98_368)">
<path d="M26.9482 6.23474L17.478 15.705C16.422 16.7583 14.9915 17.3498 13.5 17.3498C12.0085 17.3498 10.578 16.7583 9.522 15.705L0.05175 6.23474C0.036 6.41249 0 6.57337 0 6.74999V20.25C0.00178634 21.7413 0.594992 23.171 1.6495 24.2255C2.704 25.28 4.13371 25.8732 5.625 25.875H21.375C22.8663 25.8732 24.296 25.28 25.3505 24.2255C26.405 23.171 26.9982 21.7413 27 20.25V6.74999C27 6.57337 26.964 6.41249 26.9482 6.23474Z" fill="white"/>
<path d="M15.8872 14.1142L26.1629 3.83737C25.6651 3.01198 24.963 2.32879 24.1244 1.8537C23.2857 1.3786 22.3388 1.12763 21.3749 1.125H5.62491C4.66104 1.12763 3.7141 1.3786 2.87544 1.8537C2.03679 2.32879 1.3347 3.01198 0.836914 3.83737L11.1127 14.1142C11.7467 14.7457 12.6051 15.1003 13.4999 15.1003C14.3948 15.1003 15.2531 14.7457 15.8872 14.1142Z" fill="white"/>
</g>
<defs>
<clipPath id="clip0_98_368">
<rect width="27" height="27" fill="white"/>
</clipPath>
</defs>
</svg>
