<svg width="40" height="40" viewBox="0 0 40 40" fill="none" xmlns="http://www.w3.org/2000/svg">
<path d="M34.9425 13L24.42 21.6793C23.2467 22.6447 21.6572 23.1868 20 23.1868C18.3428 23.1868 16.7533 22.6447 15.58 21.6793L5.0575 13C5.04 13.1629 5 13.3103 5 13.4722V25.8448C5.00198 27.2115 5.6611 28.5218 6.83277 29.4883C8.00445 30.4547 9.59301 30.9984 11.25 31H28.75C30.407 30.9984 31.9956 30.4547 33.1672 29.4883C34.3389 28.5218 34.998 27.2115 35 25.8448V13.4722C35 13.3103 34.96 13.1629 34.9425 13Z" fill="#828386"/>
<path d="M22.6393 20.1533L34 11.329C33.4497 10.6203 32.6734 10.0336 31.7462 9.6257C30.819 9.21776 29.7721 9.00226 28.7065 9H11.2935C10.2279 9.00226 9.18097 9.21776 8.25376 9.6257C7.32656 10.0336 6.55035 10.6203 6 11.329L17.3607 20.1533C18.0617 20.6956 19.0107 21 20 21C20.9893 21 21.9383 20.6956 22.6393 20.1533Z" fill="#828386"/>
</svg>
