<svg width="27" height="27" viewBox="0 0 27 27" fill="none" xmlns="http://www.w3.org/2000/svg">
<g clip-path="url(#clip0_45_66)">
<path d="M9.00143 23.625H3.83657C3.58271 23.6244 3.37704 23.4188 3.37646 23.1649V3.83511C3.3771 3.58124 3.58271 3.37558 3.83657 3.375H9.00143C9.9334 3.375 10.6889 2.61947 10.6889 1.6875C10.6889 0.755525 9.9334 0 9.00143 0H3.83657C1.7195 0.00247852 0.00394336 1.71809 0.00146484 3.83511V23.1648C0.00394336 25.2819 1.7195 26.9975 3.83657 27H9.00143C9.9334 27 10.6889 26.2445 10.6889 25.3125C10.6889 24.3805 9.9334 23.625 9.00143 23.625Z" fill="white"/>
<path d="M25.5187 9.92024L21.1515 5.55636C20.4922 4.89745 19.4237 4.89771 18.7648 5.55694C18.1058 6.21618 18.1061 7.28473 18.7653 7.94365L22.6038 11.781L7.31396 11.8125C6.38199 11.8125 5.62646 12.568 5.62646 13.5C5.62646 14.432 6.38199 15.1875 7.31396 15.1875L22.6657 15.1594L18.7653 19.0598C18.1303 19.742 18.1685 20.8097 18.8507 21.4448C19.499 22.0483 20.5037 22.0478 21.1515 21.4436L25.5153 17.0798C27.4924 15.1028 27.4924 11.8974 25.5154 9.92034L25.5153 9.92029L25.5187 9.92024Z" fill="white"/>
</g>
<defs>
<clipPath id="clip0_45_66">
<rect width="27" height="27" fill="white"/>
</clipPath>
</defs>
</svg>
