<svg width="40" height="40" viewBox="0 0 40 40" fill="none" xmlns="http://www.w3.org/2000/svg">
<path d="M19.6333 17.0333C19.3963 16.8125 19.0829 16.6923 18.759 16.6981C18.4352 16.7038 18.1262 16.835 17.8972 17.064C17.6682 17.293 17.537 17.602 17.5313 17.9258C17.5256 18.2496 17.6458 18.5631 17.8666 18.8L19.0666 20L17.8666 21.2C17.7438 21.3144 17.6453 21.4524 17.577 21.6058C17.5086 21.7591 17.4719 21.9246 17.4689 22.0925C17.466 22.2603 17.4968 22.427 17.5597 22.5827C17.6226 22.7383 17.7162 22.8797 17.8349 22.9984C17.9536 23.1171 18.0949 23.2107 18.2506 23.2736C18.4062 23.3364 18.573 23.3673 18.7408 23.3643C18.9086 23.3614 19.0742 23.3246 19.2275 23.2563C19.3808 23.188 19.5188 23.0895 19.6333 22.9667L20.8333 21.7667L22.0333 22.9667C22.268 23.201 22.5861 23.3324 22.9178 23.3321C23.2494 23.3318 23.5673 23.1997 23.8016 22.965C24.0359 22.7303 24.1673 22.4121 24.167 22.0805C24.1667 21.7489 24.0346 21.431 23.7999 21.1967L22.6016 20L23.8016 18.8C23.9209 18.6846 24.0161 18.5467 24.0815 18.3941C24.147 18.2416 24.1814 18.0776 24.1827 17.9116C24.1841 17.7456 24.1524 17.581 24.0895 17.4274C24.0265 17.2738 23.9337 17.1343 23.8162 17.017C23.6988 16.8997 23.5592 16.807 23.4056 16.7442C23.2519 16.6814 23.0873 16.6498 22.9213 16.6514C22.7553 16.6529 22.5913 16.6874 22.4389 16.753C22.2864 16.8186 22.1485 16.9139 22.0333 17.0333L20.8333 18.2333L19.6333 17.0333ZM8.69992 17.0333C8.93429 16.7993 9.252 16.6678 9.58325 16.6678C9.9145 16.6678 10.2322 16.7993 10.4666 17.0333L11.6666 18.2333L12.8666 17.0333C12.981 16.9105 13.119 16.812 13.2724 16.7437C13.4257 16.6754 13.5912 16.6387 13.759 16.6357C13.9269 16.6327 14.0936 16.6636 14.2492 16.7265C14.4049 16.7893 14.5463 16.8829 14.665 17.0016C14.7837 17.1203 14.8773 17.2617 14.9401 17.4173C15.003 17.573 15.0339 17.7397 15.0309 17.9075C15.0279 18.0754 14.9912 18.2409 14.9229 18.3942C14.8546 18.5476 14.7561 18.6856 14.6333 18.8L13.4349 20L14.6349 21.1967C14.7511 21.3128 14.8434 21.4507 14.9063 21.6024C14.9692 21.7541 15.0017 21.9168 15.0017 22.0811C15.0018 22.2454 14.9695 22.4081 14.9067 22.5599C14.8439 22.7117 14.7519 22.8496 14.6358 22.9658C14.5196 23.0821 14.3818 23.1743 14.23 23.2372C14.0783 23.3002 13.9156 23.3326 13.7513 23.3327C13.5871 23.3327 13.4244 23.3005 13.2726 23.2377C13.1208 23.1749 12.9828 23.0828 12.8666 22.9667L11.6666 21.7667L10.4666 22.9667C10.2296 23.1875 9.91622 23.3077 9.59238 23.302C9.26855 23.2963 8.95957 23.1651 8.73055 22.936C8.50153 22.707 8.37034 22.3981 8.36463 22.0742C8.35891 21.7504 8.47912 21.437 8.69992 21.2L9.89992 20L8.69992 18.8C8.46583 18.5656 8.33435 18.2479 8.33435 17.9167C8.33435 17.5854 8.46583 17.2677 8.69992 17.0333ZM27.4999 22.5C27.1684 22.5 26.8505 22.6317 26.616 22.8661C26.3816 23.1005 26.2499 23.4185 26.2499 23.75C26.2499 24.0815 26.3816 24.3995 26.616 24.6339C26.8505 24.8683 27.1684 25 27.4999 25H30.4166C30.7481 25 31.0661 24.8683 31.3005 24.6339C31.5349 24.3995 31.6666 24.0815 31.6666 23.75C31.6666 23.4185 31.5349 23.1005 31.3005 22.8661C31.0661 22.6317 30.7481 22.5 30.4166 22.5H27.4999ZM8.74992 8.33334C7.31333 8.33334 5.93558 8.90403 4.91976 9.91985C3.90393 10.9357 3.33325 12.3134 3.33325 13.75V26.25C3.33325 27.6866 3.90393 29.0644 4.91976 30.0802C5.93558 31.096 7.31333 31.6667 8.74992 31.6667H31.2499C31.9612 31.6667 32.6656 31.5266 33.3228 31.2544C33.98 30.9821 34.5771 30.5832 35.0801 30.0802C35.5831 29.5772 35.9821 28.9801 36.2543 28.3229C36.5265 27.6657 36.6666 26.9613 36.6666 26.25V13.75C36.6666 13.0387 36.5265 12.3343 36.2543 11.6771C35.9821 11.02 35.5831 10.4228 35.0801 9.91985C34.5771 9.41686 33.98 9.01788 33.3228 8.74566C32.6656 8.47345 31.9612 8.33334 31.2499 8.33334H8.74992ZM5.83325 13.75C5.83325 12.1383 7.13825 10.8333 8.74992 10.8333H31.2499C32.8616 10.8333 34.1666 12.1383 34.1666 13.75V26.25C34.1666 27.0236 33.8593 27.7654 33.3123 28.3124C32.7653 28.8594 32.0235 29.1667 31.2499 29.1667H8.74992C7.97637 29.1667 7.23451 28.8594 6.68752 28.3124C6.14054 27.7654 5.83325 27.0236 5.83325 26.25V13.75Z" fill="#101010" fill-opacity="0.5"/>
</svg>
