<svg width="27" height="27" viewBox="0 0 27 27" fill="none" xmlns="http://www.w3.org/2000/svg">
<g clip-path="url(#clip0_98_383)">
<path d="M23.0535 8.96513L12.3233 1.09688C11.4852 0.483171 10.4935 0.113527 9.45818 0.0289166C8.42286 -0.0556941 7.38434 0.148034 6.45772 0.617518C5.5311 1.087 4.75258 1.8039 4.20845 2.68876C3.66433 3.57361 3.37586 4.59186 3.37501 5.63063V21.375C3.37339 22.4148 3.66036 23.4346 4.20396 24.321C4.74757 25.2074 5.52649 25.9255 6.45401 26.3954C7.38154 26.8654 8.42128 27.0687 9.45751 26.9828C10.4937 26.8968 11.4858 26.525 12.3233 25.9088L23.0535 18.0405C23.7655 17.518 24.3445 16.8352 24.7435 16.0473C25.1426 15.2595 25.3505 14.3888 25.3505 13.5056C25.3505 12.6225 25.1426 11.7517 24.7435 10.9639C24.3445 10.1761 23.7655 9.49326 23.0535 8.97075V8.96513Z" fill="url(#paint0_linear_98_383)"/>
</g>
<defs>
<linearGradient id="paint0_linear_98_383" x1="3" y1="-1.87554e-07" x2="25" y2="27" gradientUnits="userSpaceOnUse">
<stop stop-color="#7A10FF"/>
<stop offset="1" stop-color="#46BCF4"/>
</linearGradient>
<clipPath id="clip0_98_383">
<rect width="27" height="27" fill="white"/>
</clipPath>
</defs>
</svg>
