<svg width="27" height="27" viewBox="0 0 27 27" fill="none" xmlns="http://www.w3.org/2000/svg">
<path d="M1.80773 20.25C2.73828 21.865 4.80194 22.4199 6.41698 21.4894C6.41809 21.4887 6.41914 21.4881 6.42025 21.4875L6.92086 21.1983C7.86586 22.0068 8.95208 22.6339 10.1248 23.0478V23.625C10.1248 25.4889 11.6359 27 13.4998 27C15.3638 27 16.8748 25.4889 16.8748 23.625V23.0479C18.0478 22.6332 19.134 22.0055 20.0788 21.1961L20.5817 21.4864C22.1971 22.4183 24.2622 21.8643 25.1942 20.2488C26.1262 18.6334 25.5722 16.5683 23.9567 15.6363L23.4572 15.3483C23.6821 14.1248 23.6821 12.8706 23.4572 11.6471L23.9567 11.3591C25.5721 10.4271 26.1262 8.36204 25.1942 6.74657C24.2622 5.13116 22.1972 4.57708 20.5817 5.50905L20.0811 5.7982C19.1351 4.99068 18.0482 4.36482 16.8748 3.95213V3.375C16.8748 1.51105 15.3638 0 13.4998 0C11.6359 0 10.1248 1.51105 10.1248 3.375V3.95213C8.95192 4.36678 7.86565 4.99453 6.92086 5.80389L6.41798 5.51254C4.80252 4.58051 2.73744 5.13459 1.80547 6.75C0.873492 8.36541 1.42752 10.4305 3.04298 11.3625L3.54248 11.6505C3.31762 12.874 3.31762 14.1282 3.54248 15.3518L3.04298 15.6397C1.432 16.5742 0.879767 18.6353 1.80773 20.25ZM13.4998 9.00002C15.9851 9.00002 17.9998 11.0147 17.9998 13.5C17.9998 15.9853 15.9851 18 13.4998 18C11.0146 18 8.99986 15.9853 8.99986 13.5C8.99986 11.0147 11.0146 9.00002 13.4998 9.00002Z" fill="white"/>
</svg>
