<svg width="27" height="27" viewBox="0 0 27 27" fill="none" xmlns="http://www.w3.org/2000/svg">
<g clip-path="url(#clip0_98_374)">
<path d="M13.5 0C10.1762 0.00236966 6.97065 1.2337 4.5 3.45713V1.125C4.5 0.826632 4.38147 0.540483 4.1705 0.329505C3.95952 0.118526 3.67337 0 3.375 0C3.07663 0 2.79048 0.118526 2.57951 0.329505C2.36853 0.540483 2.25 0.826632 2.25 1.125V4.5C2.25 5.39511 2.60558 6.25355 3.23852 6.88649C3.87145 7.51942 4.72989 7.875 5.625 7.875H9C9.29837 7.875 9.58452 7.75647 9.7955 7.5455C10.0065 7.33452 10.125 7.04837 10.125 6.75C10.125 6.45163 10.0065 6.16548 9.7955 5.95451C9.58452 5.74353 9.29837 5.625 9 5.625H5.625C5.58706 5.61938 5.5495 5.61149 5.5125 5.60138C7.34571 3.75506 9.76289 2.60221 12.3514 2.33962C14.94 2.07704 17.5395 2.72099 19.7061 4.16156C21.8727 5.60213 23.4722 7.75001 24.2316 10.2386C24.9909 12.7271 24.8631 15.4021 23.8698 17.8069C22.8765 20.2117 21.0794 22.1972 18.7852 23.4245C16.491 24.6518 13.842 25.0448 11.2903 24.5365C8.73859 24.0282 6.44241 22.65 4.79369 20.6372C3.14497 18.6244 2.24592 16.1018 2.25 13.5C2.25 13.2016 2.13147 12.9155 1.9205 12.7045C1.70952 12.4935 1.42337 12.375 1.125 12.375C0.826632 12.375 0.540483 12.4935 0.329505 12.7045C0.118526 12.9155 0 13.2016 0 13.5C0 16.17 0.791761 18.7801 2.27516 21.0002C3.75856 23.2203 5.86697 24.9506 8.33377 25.9724C10.8006 26.9942 13.515 27.2615 16.1337 26.7406C18.7525 26.2197 21.1579 24.934 23.0459 23.0459C24.934 21.1579 26.2197 18.7525 26.7406 16.1337C27.2615 13.515 26.9942 10.8006 25.9724 8.33377C24.9506 5.86697 23.2203 3.75856 21.0002 2.27516C18.7801 0.791761 16.17 0 13.5 0V0Z" fill="white"/>
<path d="M13.5 6.75C13.2016 6.75 12.9155 6.86853 12.7045 7.07951C12.4935 7.29048 12.375 7.57663 12.375 7.875V13.5C12.3751 13.7983 12.4936 14.0844 12.7046 14.2954L16.0796 17.6704C16.2918 17.8753 16.576 17.9887 16.871 17.9861C17.1659 17.9836 17.4481 17.8653 17.6567 17.6567C17.8653 17.4481 17.9836 17.1659 17.9861 16.871C17.9887 16.576 17.8753 16.2918 17.6704 16.0796L14.625 13.0343V7.875C14.625 7.57663 14.5065 7.29048 14.2955 7.07951C14.0845 6.86853 13.7984 6.75 13.5 6.75Z" fill="white"/>
</g>
<defs>
<clipPath id="clip0_98_374">
<rect width="27" height="27" fill="white"/>
</clipPath>
</defs>
</svg>
