<svg width="40" height="40" viewBox="0 0 40 40" fill="none" xmlns="http://www.w3.org/2000/svg">
<path d="M14.375 21.25C13.2625 21.25 12.1749 20.9201 11.2499 20.302C10.3249 19.6839 9.60392 18.8054 9.17818 17.7776C8.75243 16.7498 8.64104 15.6188 8.85808 14.5276C9.07512 13.4365 9.61085 12.4342 10.3975 11.6475C11.1842 10.8609 12.1865 10.3251 13.2776 10.1081C14.3688 9.89104 15.4998 10.0024 16.5276 10.4282C17.5554 10.8539 18.4339 11.5749 19.052 12.4999C19.6701 13.4249 20 14.5125 20 15.625C19.9983 17.1163 19.4052 18.5461 18.3506 19.6007C17.2961 20.6552 15.8663 21.2483 14.375 21.25ZM22.5 35H6.25C5.91848 35 5.60054 34.8683 5.36612 34.6339C5.1317 34.3995 5 34.0815 5 33.75V33.125C5 30.6386 5.98772 28.254 7.74587 26.4959C9.50403 24.7377 11.8886 23.75 14.375 23.75C16.8614 23.75 19.246 24.7377 21.0041 26.4959C22.7623 28.254 23.75 30.6386 23.75 33.125V33.75C23.75 34.0815 23.6183 34.3995 23.3839 34.6339C23.1495 34.8683 22.8315 35 22.5 35ZM26.875 16.25C25.7625 16.25 24.6749 15.9201 23.7499 15.302C22.8249 14.6839 22.1039 13.8054 21.6782 12.7776C21.2524 11.7498 21.141 10.6188 21.3581 9.52762C21.5751 8.43648 22.1109 7.4342 22.8975 6.64753C23.6842 5.86086 24.6865 5.32513 25.7776 5.10809C26.8688 4.89104 27.9998 5.00244 29.0276 5.42818C30.0554 5.85392 30.9339 6.57489 31.552 7.49992C32.1701 8.42495 32.5 9.51248 32.5 10.625C32.4983 12.1163 31.9052 13.5461 30.8506 14.6007C29.7961 15.6552 28.3663 16.2483 26.875 16.25ZM25.0988 18.7763C23.9345 18.9325 22.8151 19.3274 21.8106 19.9363C20.8061 20.5452 19.9382 21.3551 19.2613 22.315C22.0624 23.5871 24.2633 25.8928 25.4037 28.75H33.75C34.0815 28.75 34.3995 28.6183 34.6339 28.3839C34.8683 28.1495 35 27.8315 35 27.5V27.4525C34.9987 26.2065 34.7316 24.9751 34.2166 23.8406C33.7015 22.706 32.9504 21.6944 32.0133 20.8732C31.0762 20.052 29.9747 19.4402 28.7823 19.0786C27.5899 18.717 26.3341 18.6139 25.0988 18.7763Z" fill="#828386"/>
</svg>
