<svg width="27" height="27" viewBox="0 0 27 27" fill="none" xmlns="http://www.w3.org/2000/svg">
<path d="M8.4375 14.625C7.43623 14.625 6.45745 14.3281 5.62493 13.7718C4.7924 13.2155 4.14353 12.4249 3.76036 11.4998C3.37719 10.5748 3.27694 9.55689 3.47227 8.57486C3.66761 7.59283 4.14977 6.69078 4.85777 5.98277C5.56577 5.27477 6.46783 4.79261 7.44986 4.59728C8.43188 4.40194 9.44978 4.50219 10.3748 4.88536C11.2999 5.26853 12.0905 5.9174 12.6468 6.74993C13.2031 7.58245 13.5 8.56123 13.5 9.5625C13.4985 10.9047 12.9647 12.1915 12.0156 13.1406C11.0665 14.0897 9.7797 14.6235 8.4375 14.625ZM15.75 27H1.125C0.826631 27 0.540483 26.8815 0.329505 26.6705C0.118526 26.4595 0 26.1734 0 25.875V25.3125C0 23.0747 0.888948 20.9286 2.47129 19.3463C4.05362 17.764 6.19974 16.875 8.4375 16.875C10.6753 16.875 12.8214 17.764 14.4037 19.3463C15.9861 20.9286 16.875 23.0747 16.875 25.3125V25.875C16.875 26.1734 16.7565 26.4595 16.5455 26.6705C16.3345 26.8815 16.0484 27 15.75 27ZM19.6875 10.125C18.6862 10.125 17.7074 9.82809 16.8749 9.27182C16.0424 8.71554 15.3935 7.92489 15.0104 6.99984C14.6272 6.07479 14.5269 5.05689 14.7223 4.07486C14.9176 3.09283 15.3998 2.19078 16.1078 1.48277C16.8158 0.774771 17.7178 0.292614 18.6999 0.0972768C19.6819 -0.0980609 20.6998 0.00219351 21.6248 0.385362C22.5499 0.768531 23.3405 1.4174 23.8968 2.24993C24.4531 3.08245 24.75 4.06123 24.75 5.0625C24.7485 6.4047 24.2147 7.69151 23.2656 8.64059C22.3165 9.58967 21.0297 10.1235 19.6875 10.125ZM18.0889 12.3986C17.0411 12.5392 16.0336 12.8946 15.1296 13.4427C14.2255 13.9907 13.4444 14.7195 12.8351 15.5835C15.3561 16.7284 17.3369 18.8035 18.3634 21.375H25.875C26.1734 21.375 26.4595 21.2565 26.6705 21.0455C26.8815 20.8345 27 20.5484 27 20.25V20.2073C26.9988 19.0859 26.7585 17.9776 26.2949 16.9565C25.8314 15.9354 25.1553 15.0249 24.3119 14.2859C23.4685 13.5468 22.4772 12.9962 21.4041 12.6707C20.3309 12.3453 19.2007 12.2525 18.0889 12.3986Z" fill="white"/>
</svg>
