<svg width="27" height="27" viewBox="0 0 27 27" fill="none" xmlns="http://www.w3.org/2000/svg">
<g clip-path="url(#clip0_113_449)">
<path d="M25.875 12.375H23.625V10.125C23.625 9.50367 23.1213 9 22.5 9C21.8787 9 21.375 9.50367 21.375 10.125V12.375H19.125C18.5037 12.375 18 12.8787 18 13.5C18 14.1213 18.5037 14.625 19.125 14.625H21.375V16.875C21.375 17.4963 21.8787 18 22.5 18C23.1213 18 23.625 17.4963 23.625 16.875V14.625H25.875C26.4963 14.625 27 14.1213 27 13.5C27 12.8787 26.4963 12.375 25.875 12.375Z" fill="white"/>
<path d="M10.125 13.5C13.8529 13.5 16.875 10.4779 16.875 6.75C16.875 3.02208 13.8529 0 10.125 0C6.39708 0 3.375 3.02208 3.375 6.75C3.375 10.4779 6.39708 13.5 10.125 13.5Z" fill="white"/>
<path d="M10.125 15.75C4.53568 15.7562 0.00622266 20.2857 0 25.875C0 26.4963 0.503666 27 1.12498 27H19.125C19.7463 27 20.2499 26.4963 20.2499 25.875C20.2438 20.2857 15.7143 15.7562 10.125 15.75Z" fill="white"/>
</g>
<defs>
<clipPath id="clip0_113_449">
<rect width="27" height="27" fill="white"/>
</clipPath>
</defs>
</svg>
