<svg width="27" height="27" viewBox="0 0 27 27" fill="none" xmlns="http://www.w3.org/2000/svg">
<path fill-rule="evenodd" clip-rule="evenodd" d="M5.97888 6.52641H19.7887C21.5656 6.52641 23.011 7.99256 23.011 9.79488C23.011 9.79488 23.011 11.0545 23.011 11.375C23.011 13 20.249 13 20.249 11.2449C20.249 10.6786 20.249 9.79488 20.249 9.79488C20.249 9.53714 20.0419 9.32796 19.7887 9.32796H5.97888C5.16686 9.32796 4.37971 9.12811 3.67725 8.76391V17.2657C3.67725 18.5525 4.7093 19.6003 5.97888 19.6003C5.97888 19.6003 10.3052 19.9063 13.9087 19.9063C15.5451 19.9063 15.5451 22.3438 13.9087 22.3438C10.3052 22.3438 5.97888 22.4018 5.97888 22.4018C3.18746 22.4018 0.915283 20.098 0.915283 17.2657V6.99334C0.915283 4.16098 3.18746 1.85718 5.97888 1.85718H21.63C23.4446 1.88799 23.4455 4.62697 21.63 4.65872H5.97888C5.22763 4.65872 4.55831 5.02666 4.13757 5.5935C4.57028 6.17529 5.25249 6.52641 5.97888 6.52641ZM18.4077 14.4641C18.3764 16.3057 15.6761 16.3047 15.6458 14.4641C15.6771 12.6226 18.3773 12.6235 18.4077 14.4641Z" fill="#FFFAFA"/>
<path d="M25.4939 17.9388H21.9255V14.3185C21.9255 14.0785 21.8315 13.8483 21.6642 13.6785C21.497 13.5088 21.27 13.4135 21.0334 13.4135C20.7969 13.4135 20.5699 13.5088 20.4026 13.6785C20.2353 13.8483 20.1414 14.0785 20.1414 14.3185V17.9388H16.573C16.3364 17.9388 16.1095 18.0342 15.9422 18.2039C15.7749 18.3736 15.6809 18.6038 15.6809 18.8439C15.6809 19.0839 15.7749 19.3141 15.9422 19.4839C16.1095 19.6536 16.3364 19.7489 16.573 19.7489H20.1414V23.3692C20.1414 23.6093 20.2353 23.8395 20.4026 24.0092C20.5699 24.1789 20.7969 24.2743 21.0334 24.2743C21.27 24.2743 21.497 24.1789 21.6642 24.0092C21.8315 23.8395 21.9255 23.6093 21.9255 23.3692V19.7489H25.4939C25.7305 19.7489 25.9574 19.6536 26.1247 19.4839C26.292 19.3141 26.386 19.0839 26.386 18.8439C26.386 18.6038 26.292 18.3736 26.1247 18.2039C25.9574 18.0342 25.7305 17.9388 25.4939 17.9388Z" fill="#FFFAFA"/>
</svg>
